<!-- icon666.com - MILLIONS vector ICONS FREE --><svg id="Capa_1" enable-background="new 0 0 512 512" viewBox="0 0 512 512" xmlns="http://www.w3.org/2000/svg"><g><path d="m156.716 374.843 175.862-175.86c11.233-11.233 11.234-29.511 0-40.744l-26.618-26.619c-11.234-11.233-29.512-11.234-40.744 0l-27.367 27.367c-2.929 2.929-2.929 7.678 0 10.607s7.678 2.929 10.607 0l27.367-27.367c5.384-5.384 14.146-5.385 19.531 0l26.619 26.619c5.384 5.385 5.384 14.146 0 19.531l-175.864 175.859c-12.752 12.753-33.394 12.755-46.149 0l-80.909-80.908c-5.385-5.385-5.385-14.146 0-19.531l26.619-26.619c5.397-5.397 14.133-5.398 19.531 0l52.53 52.531c2.926 2.927 7.679 2.929 10.607 0l98.904-98.903c2.929-2.929 2.929-7.678 0-10.607-2.928-2.929-7.677-2.929-10.607 0l-93.6 93.6-47.227-47.228c-11.233-11.234-29.511-11.233-40.744 0l-26.619 26.62c-11.259 11.258-11.261 29.484 0 40.744l80.909 80.908c18.614 18.615 48.745 18.619 67.362 0z"/><path d="m503.575 158.911-26.618-26.619c-11.234-11.234-29.511-11.234-40.744 0l-180.703 180.702c-11.234 11.233-11.234 29.511 0 40.744l26.618 26.618c11.26 11.26 29.484 11.26 40.744 0l37.934-37.933c2.929-2.929 2.929-7.678 0-10.607-2.928-2.929-7.677-2.929-10.607 0l-37.934 37.933c-5.397 5.397-14.133 5.398-19.531 0l-26.618-26.618c-5.385-5.385-5.385-14.146 0-19.531l180.703-180.702c5.384-5.384 14.146-5.385 19.531 0l26.618 26.619c5.385 5.385 5.385 14.146 0 19.531l-121.555 121.555c-2.929 2.929-2.929 7.678 0 10.607 2.929 2.93 7.678 2.929 10.607 0l121.556-121.555c11.232-11.233 11.232-29.511-.001-40.744z"/></g></svg>