<svg xmlns="http://www.w3.org/2000/svg" viewBox="0 0 500 500" width="500" height="500" class="illustration"><g id="Layer_10" data-name="Layer 10"><rect x="52.31" y="40.17" width="26.51" height="403.68" fill="#3fe2fd"></rect><circle cx="209.06" cy="327.69" r="40.37" fill="#3fe2fd"></circle><polygon points="300.81 61.3 300.81 124.71 364.45 124.71 300.81 61.3" fill="#3fe2fd"></polygon><rect x="413.98" y="177.46" width="38.36" height="38.36" fill="#3fe2fd"></rect></g><g id="Layer_3" data-name="Layer 3"><path d="M456.79,392.89H412.5a7,7,0,0,1-7-7V170.46a7,7,0,0,1,7-7h44.29a7,7,0,0,1,7,7V385.89A7,7,0,0,1,456.79,392.89Zm-37.29-14h30.29V177.46H419.5Z" fill="#251ac7"></path><path d="M434.64,451.82a7,7,0,0,1-6.55-4.54L406,388.35a7,7,0,0,1,13.11-4.92l15.58,41.49,15.6-41.49a7,7,0,0,1,13.1,4.92L441.2,447.28A7,7,0,0,1,434.64,451.82Z" fill="#251ac7"></path><path d="M456.79,222.82H412.5a7,7,0,0,1,0-14h44.29a7,7,0,0,1,0,14Z" fill="#251ac7"></path><path d="M368.4,450.81H52.31a10.07,10.07,0,0,1-10.06-10.05V50.23A10.07,10.07,0,0,1,52.31,40.17H297.36a7,7,0,0,1,5.16,2.27l74.1,80.83a7,7,0,0,1,1.84,4.73V440.76A10.07,10.07,0,0,1,368.4,450.81Zm-312.15-14H364.46V130.72L294.28,54.17h-238Z" fill="#251ac7"></path><path d="M371.46,134.73H303.14a10.07,10.07,0,0,1-10.06-10.06V47.17a7,7,0,0,1,12.24-4.64l71.37,80.55a7,7,0,0,1-5.23,11.65Zm-64.38-14H355.9l-48.82-55.1Z" fill="#251ac7"></path><path d="M209.06,404.72a73.37,73.37,0,1,1,73.37-73.37A73.46,73.46,0,0,1,209.06,404.72Zm0-132.74a59.37,59.37,0,1,0,59.37,59.37A59.44,59.44,0,0,0,209.06,272Z" fill="#251ac7"></path><path d="M211.44,362.7h-3.37a18.58,18.58,0,0,1-18.56-18.55,7,7,0,0,1,14,0,4.56,4.56,0,0,0,4.56,4.55h3.37a4.55,4.55,0,0,0,4.55-4.55V342a4.55,4.55,0,0,0-4.55-4.55h-3.37a18.58,18.58,0,0,1-18.56-18.55v-2.17a18.58,18.58,0,0,1,18.56-18.55h4.57a18.57,18.57,0,0,1,18.55,18.55v1.45a7,7,0,0,1-14,0v-1.45a4.55,4.55,0,0,0-4.55-4.55h-4.57a4.56,4.56,0,0,0-4.56,4.55v2.17a4.56,4.56,0,0,0,4.56,4.55h3.37A18.57,18.57,0,0,1,230,342v2.17A18.57,18.57,0,0,1,211.44,362.7Z" fill="#251ac7"></path><path d="M210.35,312.16a7,7,0,0,1-7-7V294.33a7,7,0,0,1,14,0v10.83A7,7,0,0,1,210.35,312.16Z" fill="#251ac7"></path><path d="M210.35,373.54a7,7,0,0,1-7-7v-6.1a7,7,0,0,1,14,0v6.1A7,7,0,0,1,210.35,373.54Z" fill="#251ac7"></path><path d="M323.51,191.71H102.15a7,7,0,0,1,0-14H323.51a7,7,0,0,1,0,14Z" fill="#251ac7"></path><path d="M323.51,230.26H102.15a7,7,0,1,1,0-14H323.51a7,7,0,0,1,0,14Z" fill="#251ac7"></path><path d="M178.72,97.91H102.15a7,7,0,0,1,0-14h76.57a7,7,0,0,1,0,14Z" fill="#251ac7"></path><path d="M178.72,136.46H102.15a7,7,0,0,1,0-14h76.57a7,7,0,0,1,0,14Z" fill="#251ac7"></path></g></svg>